****** Cemetery.Junction.2010.DVDRiP.XviD.MULTISUB-Zen_Bud *******

Format                           : AVI
Format profile                   : OpenDML
File size                        : 878 MiB
Duration                         : 1h 30mn
Overall bit rate                 : 1 351 Kbps
Writing application              : AVI-Mux GUI 1.17.8.3

Video

Format                           : MPEG-4 Visual
Codec ID/Hint                    : XviD
Duration                         : 1h 30mn
Bit rate                         : 1 219 Kbps
Width                            : 720 pixels
Height                           : 428 pixels
Display aspect ratio             : 2.35:1
Stream size                      : 792 MiB (90%)
Writing library                  : XviD 1.1.2 

Audio

Format                           : MPEG Audio
Codec ID/Hint                    : MP3
Duration                         : 1h 30mn
Bit rate                         : 128 Kbps
Channel(s)                       : 2 channels
Sampling rate                    : 48.0 KHz
Stream size                      : 83.2 MiB (9%)
Language                         : English

Text #1
Language                         : English

Text #2
Language                         : Italian

Text #3
Language                         : Danish

Text #4
Language                         : Finnish

Text #5
Language                         : Norwegian

Text #6
Language                         : Swedish


A 1970s-set comedy centered on three upstart professional men working at an insurance company. 